<?xml version="1.0" encoding="UTF-8"?>
<svg id="Layer_2" data-name="Layer 2" xmlns="http://www.w3.org/2000/svg" viewBox="0 0 784.24 877.63">
  <defs>
    <style>
      .cls-1 {
        fill: #191919;
      }

      .cls-2 {
        stroke: #fff;
        stroke-linecap: round;
        stroke-linejoin: round;
        stroke-width: 20px;
      }
    </style>
  </defs>
  <g id="Layer_1-2" data-name="Layer 1">
    <g>
      <path class="cls-1" d="m784.24,278.22v311.18c0,43.81-23.37,84.3-61.31,106.2l-269.5,155.59c-18.86,10.89-39.91,16.37-60.97,16.43-.68,0-1.36,0-2.03-.02-20.63-.28-41.18-5.76-59.64-16.42l-138.09-79.74-2.03-1.16-129.36-74.69C23.37,673.71,0,633.21,0,589.41v-311.18c0-43.81,23.37-84.3,61.32-106.2L330.8,16.43c37.94-21.91,84.69-21.91,122.63,0l269.5,155.59c37.94,21.9,61.31,62.39,61.31,106.2Z"/>
      <g>
        <path class="cls-2" d="m592.53,286.61l-2,1.18-198.53,116.32-198.28-118.3-1.5-.9-1.04,1.73,1.53.91,197.88,118.07-.15,219.67v1.76l2.03-1.18,199.91-115.42.51-.29.67-224.14-1.02.59Zm-1.67,222.38l-198.39,114.55.14-217.44,198.92-116.54-.67,219.42Z"/>
        <g>
          <path class="cls-2" d="m390.44,625.29h2.03v242.34c-.68,0-1.36,0-2.03-.02v-242.32Z"/>
          <polygon class="cls-2" points="593.06 286.92 592.04 288.67 590.54 287.79 394.71 173.25 394.65 173.28 193.72 285.81 192.71 286.36 192.71 771.46 190.69 770.3 190.69 285.17 191.2 284.89 394.71 170.9 395.22 171.19 592.53 286.61 593.06 286.92"/>
        </g>
      </g>
    </g>
  </g>
</svg>